<!-- 1. RECEIPT ICON (Primary logo icon) -->
<!-- File: assets/images/icons/receipt-icon.svg -->
<svg width="24" height="24" viewBox="0 0 24 24" xmlns="http://www.w3.org/2000/svg">
  <defs>
    <linearGradient id="receiptGradient" x1="0%" y1="0%" x2="100%" y2="100%">
      <stop offset="0%" style="stop-color:#F08E34;stop-opacity:1" />
      <stop offset="100%" style="stop-color:#E07B1F;stop-opacity:1" />
    </linearGradient>
  </defs>
  <!-- Main receipt body -->
  <path d="M4,3 L16,3 L16,5 L18,5 L18,18 L4,18 Z" 
        stroke="#F08E34" 
        stroke-width="1.5" 
        fill="white" 
        fill-opacity="0.9"/>
  <!-- Folded corner -->
  <path d="M16,3 L16,5 L18,5" 
        stroke="#F08E34" 
        stroke-width="1.5" 
        fill="#F08E34" 
        fill-opacity="0.3"/>
  <!-- Receipt text lines -->
  <line x1="6" y1="7" x2="14" y2="7" stroke="#F08E34" stroke-width="1"/>
  <line x1="6" y1="9" x2="15" y2="9" stroke="#F08E34" stroke-width="1"/>
  <line x1="6" y1="11" x2="13" y2="11" stroke="#F08E34" stroke-width="1"/>
  <line x1="6" y1="13" x2="12" y2="13" stroke="#F08E34" stroke-width="1"/>
  <!-- Serrated bottom edge -->
  <path d="M4,18 L5,19 L6,18 L7,19 L8,18 L9,19 L10,18 L11,19 L12,18 L13,19 L14,18 L15,19 L16,18 L17,19 L18,18" 
        stroke="#F08E34" 
        stroke-width="1.5" 
        fill="none"/>
</svg>
